<svg preserveAspectRatio="none" width="100%" height="100%" overflow="visible" style="display: block;" viewBox="0 0 550.02 550.02" fill="none" xmlns="http://www.w3.org/2000/svg">
<g id="Frame 1">
<path id="Vector" d="M275.01 550.02C426.894 550.02 550.02 426.894 550.02 275.01C550.02 123.126 426.894 0 275.01 0C123.126 0 0 123.126 0 275.01C0 426.894 123.126 550.02 275.01 550.02Z" fill="var(--fill-0, #FF6F61)"/>
<path id="Union" d="M333.145 92.0151C352.935 92.0152 368.845 108.625 368.845 131.595C368.845 149.625 361.425 164.115 350.466 173.655C366.016 189.205 375.915 211.115 375.915 238.685C375.915 296.285 328.915 331.635 275.895 331.635C258.935 331.635 245.855 326.695 237.375 326.695C228.895 326.695 222.886 331.995 222.885 340.825C222.885 349.655 230.665 356.375 243.735 356.375C271.305 356.375 299.576 343.655 322.546 343.655C352.935 343.655 372.025 361.675 372.025 384.645C372.025 409.385 352.935 421.755 329.615 421.755C328.555 416.105 322.545 410.095 311.235 410.095H311.225C291.785 410.095 276.585 421.755 244.785 421.755C202.375 421.755 174.105 393.835 174.105 357.085C174.105 333.405 188.246 316.085 207.676 307.965C188.246 291.695 175.875 268.015 175.875 238.685C175.875 178.255 223.585 145.025 275.895 145.025C293.915 145.025 311.235 148.915 326.075 156.335C334.555 160.575 335.965 152.095 329.256 148.565C314.416 140.795 304.165 130.895 304.165 115.695C304.165 100.495 316.535 92.0151 333.145 92.0151ZM292.971 209.025C284.992 209.025 278.111 213.875 275.011 220.815C271.911 213.865 265.031 209.025 257.052 209.025C246.172 209.025 237.332 218.026 237.332 229.085C237.332 231.415 237.722 233.656 238.452 235.746C239.272 238.115 240.522 240.285 242.112 242.155C242.792 242.955 243.521 243.695 244.311 244.385L274.391 274.775C274.581 274.965 274.821 275.055 275.061 275.055C275.301 275.055 275.551 274.965 275.731 274.775L306.922 243.255C308.942 241.185 310.531 238.685 311.521 235.895C312.271 233.775 312.691 231.485 312.691 229.095V229.085C312.691 218.025 303.841 209.025 292.971 209.025Z" fill="var(--fill-0, white)"/>
<path id="Vector_2" d="M312.69 229.04C312.69 217.98 303.84 208.98 292.97 208.98C284.99 208.98 278.11 213.83 275.01 220.77C271.91 213.82 265.03 208.98 257.05 208.98C246.17 208.98 237.33 217.98 237.33 229.04C237.33 231.37 237.72 233.61 238.45 235.7C239.27 238.07 240.52 240.24 242.11 242.11C242.79 242.91 243.52 243.65 244.31 244.34L274.39 274.73C274.58 274.92 274.82 275.01 275.06 275.01C275.3 275.01 275.55 274.92 275.73 274.73L306.92 243.21C308.94 241.14 310.53 238.64 311.52 235.85C312.27 233.73 312.69 231.44 312.69 229.05V229.04Z" fill="var(--fill-0, #FF6F61)"/>
</g>
</svg>
