<svg preserveAspectRatio="none" width="100%" height="100%" overflow="visible" style="display: block;" viewBox="0 0 951.55 275.4" fill="none" xmlns="http://www.w3.org/2000/svg">
<g id="Group 1">
<path id="Vector" d="M0 207.59V204.98C12.25 199.76 17.99 190.64 17.99 173.16V59.46C17.99 44.07 13.29 33.38 0 27.64V25.04H115.53C166.91 25.04 193.77 52.16 193.77 86.85C193.77 117.1 170.56 140.83 135.35 140.83C133.78 140.83 131.96 140.83 130.13 140.57C141.34 147.87 151.52 154.39 163.51 154.39C173.42 154.39 177.33 146.56 177.33 146.56C184.9 150.21 194.54 158.3 194.54 172.9C194.54 193.5 181.5 211.24 153.07 211.24C109.78 211.24 99.61 147.87 70.14 141.09V173.17C70.14 190.64 75.88 199.77 88.13 204.99V207.6H0V207.59ZM70.15 66.76V108.49H114.74C130.91 108.49 141.6 101.45 141.6 88.15C141.6 73.55 130.91 66.77 114.74 66.77H70.15V66.76Z" fill="var(--fill-0, #FF6F61)"/>
<path id="Vector_2" d="M345.79 170.03C345.79 188.54 325.19 211.24 281.12 211.24C237.05 211.24 203.67 177.86 203.67 134.82C203.67 91.78 239.92 60.76 281.12 60.76C322.32 60.76 346.84 85.01 346.84 112.39C346.84 135.08 325.19 152.56 290.25 152.56C272.52 152.56 259.21 148.12 251.13 143.95C255.04 160.38 270.16 172.38 292.33 172.38C316.06 172.38 329.36 160.12 336.92 150.73C341.09 153.6 345.79 160.12 345.79 170.03ZM280.07 127.78C293.37 127.78 301.97 121.52 301.97 112.66C301.97 104.31 294.93 98.05 282.93 98.05C269.37 98.05 257.63 107.44 252.68 120.48C258.94 124.39 267.81 127.78 280.07 127.78Z" fill="var(--fill-0, #FF6F61)"/>
<path id="Vector_3" d="M651.68 207.33C648.55 208.89 641.51 211.24 632.38 211.24C620.91 211.24 611 206.02 604.48 196.63C595.87 205.76 583.88 211.24 566.92 211.24C531.46 211.24 511.38 188.03 511.38 162.99C511.38 137.95 532.24 118.4 566.92 118.4C578.4 118.4 588.57 121.53 597.17 125.7V124.92C597.17 107.19 586.48 96.49 567.45 96.49C551.02 96.49 543.19 104.05 540.59 111.36C528.86 111.36 518.94 104.05 518.94 92.32C518.94 73.55 537.45 59.72 572.4 59.72C612.3 59.72 642.81 80.85 642.81 124.66V173.95C642.81 190.9 645.68 200.81 651.42 204.46L651.68 207.33ZM572.14 147.61C561.45 147.61 553.63 153.61 553.63 161.95C553.63 170.29 560.94 176.3 572.14 176.3C585.18 176.3 596.39 168.73 597.18 153.61C590.14 150.22 583.1 147.61 572.14 147.61Z" fill="var(--fill-0, #FF6F61)"/>
<path id="Vector_4" d="M715.82 3.64999L715.56 176.55C715.56 192.2 717.65 200.02 724.69 204.71V207.58H660.8V204.71C666.27 200.8 669.92 192.19 669.92 176.55V54.5C669.92 38.85 666.27 31.81 660.8 27.9V25.03C679.05 25.03 700.44 13.82 715.82 3.64999Z" fill="var(--fill-0, #FF6F61)"/>
<path id="Vector_5" d="M735.11 207.59V204.98C741.11 200.81 744.24 192.2 744.24 176.56V95.19C744.24 79.54 740.59 70.67 735.11 66.77V64.16H789.88V176.56C789.88 192.21 791.97 200.29 799.01 204.98V207.59H735.11Z" fill="var(--fill-0, #FF6F61)"/>
<path id="Vector_6" d="M805.52 205.5L873.32 100.14H851.16C833.17 100.14 817.78 105.35 811.78 109.01L810.21 108.23L821.95 59.98C821.95 59.98 828.21 64.15 848.81 64.15H946.34V66.23L883.23 166.9C889.49 167.94 895.49 169.24 902 169.24C918.43 169.24 926.78 158.03 926.78 146.29C941.9 146.29 951.55 157.5 951.55 173.67C951.55 195.57 933.3 211.74 901.48 211.74C878.01 211.74 854.8 204.18 835.24 204.18C825.07 204.18 814.12 206.26 805.52 207.57V205.48V205.5Z" fill="var(--fill-0, #FF6F61)"/>
<path id="Vector_7" d="M765.89 0C780.49 0 792.75 11.73 792.75 26.6C792.75 41.47 780.49 53.2 765.89 53.2C751.29 53.2 739.29 41.47 739.29 26.6C739.29 11.73 751.28 0 765.89 0Z" fill="var(--fill-0, #FF6F61)"/>
<path id="Union" d="M473.336 27.0397C488.242 27.0397 500.225 39.5503 500.225 56.8512C500.225 70.4314 494.636 81.3453 486.381 88.5309C498.094 100.243 505.55 116.746 505.55 137.511C505.55 180.896 470.15 207.521 430.215 207.521C417.441 207.521 407.59 203.801 401.203 203.8C394.816 203.8 390.289 207.792 390.289 214.443C390.289 221.094 396.148 226.156 405.993 226.156C426.758 226.156 448.051 216.575 465.352 216.575C488.242 216.575 502.621 230.148 502.621 247.449C502.62 266.083 488.242 275.4 470.677 275.4C469.879 271.144 465.352 266.618 456.833 266.618H456.826C442.184 266.618 430.735 275.4 406.784 275.4C374.84 275.4 353.547 254.37 353.547 226.69C353.547 208.854 364.198 195.809 378.833 189.693C364.198 177.438 354.88 159.603 354.88 137.511C354.88 91.9957 390.816 66.9665 430.215 66.9664C443.788 66.9664 456.834 69.8972 468.011 75.4859C474.398 78.6792 475.46 72.2923 470.407 69.6334C459.229 63.7811 451.508 56.3241 451.508 44.8756C451.508 33.427 460.826 27.0397 473.336 27.0397ZM443.078 115.171C437.067 115.172 431.885 118.825 429.55 124.051C427.215 118.817 422.033 115.172 416.023 115.171C407.828 115.172 401.169 121.951 401.169 130.281C401.169 132.036 401.463 133.723 402.013 135.297C402.631 137.082 403.573 138.717 404.77 140.126C405.282 140.728 405.832 141.285 406.426 141.804L429.083 164.695C429.225 164.838 429.407 164.906 429.587 164.906C429.768 164.906 429.957 164.838 430.092 164.695L453.584 140.954C455.106 139.395 456.304 137.511 457.049 135.41C457.614 133.813 457.93 132.089 457.93 130.289V130.281C457.93 121.951 451.265 115.172 443.078 115.171Z" fill="var(--fill-0, #FF6F61)"/>
</g>
</svg>
